<svg xmlns="http://www.w3.org/2000/svg" viewBox="0 0 146.751 21.058"><path d="M0 1.081Q.932.906 1.916.743T3.9.457q1-.123 2.009-.2T7.9.185a20.183 20.183 0 0 1 2.66.171 11.767 11.767 0 0 1 2.426.58 8.453 8.453 0 0 1 2.087 1.09 6.56 6.56 0 0 1 1.631 1.7 8.1 8.1 0 0 1 1.059 2.4 12.263 12.263 0 0 1 .378 3.208 14.721 14.721 0 0 1-.326 3.133 12.423 12.423 0 0 1-.949 2.79 10.853 10.853 0 0 1-1.525 2.348 9.507 9.507 0 0 1-2.056 1.806 9.627 9.627 0 0 1-2.549 1.16 10.6 10.6 0 0 1-2.993.409 12.669 12.669 0 0 1-1.679-.115 15.314 15.314 0 0 1-1.775-.352l-1.74.211-.158-.017q.061-.562.131-1.49t.137-2.157q.066-1.23.127-2.738t.11-3.243q.048-1.737.075-3.661t.026-4a6.892 6.892 0 0 0-.035-.738 1.156 1.156 0 0 0-.18-.528.869.869 0 0 0-.431-.316 2.318 2.318 0 0 0-.778-.106 10.7 10.7 0 0 0-1.485.132zm5.3.29l-.027 1.31-.044 2.026-.065 2.522q-.036 1.367-.084 2.795-.043 1.428-.1 2.843t-.1 2.672q-.053 1.256-.11 2.281t-.11 1.666a10.647 10.647 0 0 0 1.6.3q.734.073 1.446.074a8.732 8.732 0 0 0 2.641-.369 6.787 6.787 0 0 0 2.053-1.03 6.548 6.548 0 0 0 1.5-1.577 8.926 8.926 0 0 0 1.011-2 12.038 12.038 0 0 0 .571-2.32 17.425 17.425 0 0 0 .18-2.523 13.817 13.817 0 0 0-.426-3.541 7.121 7.121 0 0 0-1.389-2.768 6.385 6.385 0 0 0-2.509-1.812 9.823 9.823 0 0 0-3.779-.646q-.559 0-1.117.026T5.3 1.371zm22.148 10.178a2.929 2.929 0 0 0-.228-1.2 2.413 2.413 0 0 0-.6-.835 2.438 2.438 0 0 0-.835-.484 2.892 2.892 0 0 0-.932-.158A3.634 3.634 0 0 0 23.8 9a1.95 1.95 0 0 0-.7.36 1.322 1.322 0 0 0-.387.541 1.877 1.877 0 0 0-.118.672 2.5 2.5 0 0 0 .153.848 3.279 3.279 0 0 0 .453.831l-.035.1a2.274 2.274 0 0 1-1.011.246 1.642 1.642 0 0 1-.555-.098 1.242 1.242 0 0 1-.747-.7 1.437 1.437 0 0 1-.11-.572 2 2 0 0 1 .251-.975 3.245 3.245 0 0 1 .663-.835 4.921 4.921 0 0 1 .958-.677 7.817 7.817 0 0 1 2.29-.822 5.912 5.912 0 0 1 1.085-.11 4.5 4.5 0 0 1 1.578.247 2.573 2.573 0 0 1 1.063.716 2.91 2.91 0 0 1 .6 1.138 5.554 5.554 0 0 1 .189 1.512c0 .387-.016.811-.048 1.275s-.069.947-.11 1.454-.078 1.03-.11 1.569-.052 1.08-.052 1.612a3.19 3.19 0 0 0 .47 1.9 1.464 1.464 0 0 0 1.235.638 3 3 0 0 0 1.511-.5l.255.379a4.243 4.243 0 0 1-1.283.9 3.563 3.563 0 0 1-1.459.307 2.817 2.817 0 0 1-1.055-.194 2.266 2.266 0 0 1-.835-.575 2.614 2.614 0 0 1-.544-.962 4.258 4.258 0 0 1-.194-1.346c0-.152 0-.3.013-.457a4.423 4.423 0 0 1 .057-.482h-.051a13.145 13.145 0 0 1-.875 1.489 8.24 8.24 0 0 1-1.09 1.31 5.515 5.515 0 0 1-1.265.931 2.968 2.968 0 0 1-1.411.356 2.818 2.818 0 0 1-1.107-.211 2.552 2.552 0 0 1-.857-.58 2.607 2.607 0 0 1-.554-.874 3 3 0 0 1-.2-1.1 3.372 3.372 0 0 1 .286-1.406 3.765 3.765 0 0 1 .791-1.135 4.922 4.922 0 0 1 1.208-.865 8.5 8.5 0 0 1 1.53-.606 11.415 11.415 0 0 1 1.749-.361 14.75 14.75 0 0 1 1.881-.119c.041-.369.074-.726.1-1.072s.042-.732.042-1.148zm-5.4 6.038a2.846 2.846 0 0 0 .074.655 1.634 1.634 0 0 0 .238.549 1.176 1.176 0 0 0 .413.374 1.254 1.254 0 0 0 .6.135 2.028 2.028 0 0 0 .817-.183 3.748 3.748 0 0 0 .831-.51 5.363 5.363 0 0 0 .782-.778 6.7 6.7 0 0 0 1.169-2.119 5.535 5.535 0 0 0 .259-1.216q-.649.017-1.292.083a9 9 0 0 0-1.217.206 5.758 5.758 0 0 0-1.068.369 3.136 3.136 0 0 0-.848.567 2.453 2.453 0 0 0-.558.8 2.639 2.639 0 0 0-.196 1.068zM36.563 2.522q.324 1.029.711 2.475t.831 3.41q.444 1.963.94 4.495t1.042 5.73h.053q.818-1.581 1.595-3.146t1.465-3.045q.685-1.481 1.257-2.848t.984-2.562a21.528 21.528 0 0 0 .642-2.184 7.8 7.8 0 0 0 .229-1.718A3.642 3.642 0 0 0 45.088.22l.07-.158a5.26 5.26 0 0 1 .343-.044 3.527 3.527 0 0 1 .36-.018 3.61 3.61 0 0 1 .884.11 2.173 2.173 0 0 1 .777.365 1.888 1.888 0 0 1 .559.685 2.394 2.394 0 0 1 .219 1.072 6.413 6.413 0 0 1-.273 1.574q-.272 1-.782 2.346T46 9.149q-.735 1.653-1.648 3.529t-2 3.938q-1.086 2.061-2.3 4.223l-1.442.114-.184-.026Q37.064 13.958 36.1 9.593a48.884 48.884 0 0 0-1.647-6.183 6.211 6.211 0 0 0-.36-.8 2.06 2.06 0 0 0-.422-.545 1.462 1.462 0 0 0-.558-.307 2.7 2.7 0 0 0-.778-.1 5.657 5.657 0 0 0-.642.04c-.234.026-.5.063-.8.11l-.1-.783Q32.159.686 33.073.5a8.021 8.021 0 0 1 1.538-.184 1.849 1.849 0 0 1 .739.128 1.272 1.272 0 0 1 .5.395 2.759 2.759 0 0 1 .369.686c.105.275.22.611.344.997zm18.799 9.027a2.929 2.929 0 0 0-.228-1.2 2.413 2.413 0 0 0-.6-.835 2.438 2.438 0 0 0-.835-.484 2.89 2.89 0 0 0-.931-.158A3.641 3.641 0 0 0 51.715 9a1.95 1.95 0 0 0-.7.36 1.322 1.322 0 0 0-.387.541 1.877 1.877 0 0 0-.118.672 2.474 2.474 0 0 0 .154.848 3.244 3.244 0 0 0 .452.831l-.035.1a2.274 2.274 0 0 1-1.011.246 1.642 1.642 0 0 1-.558-.093 1.242 1.242 0 0 1-.747-.7 1.437 1.437 0 0 1-.11-.572 2 2 0 0 1 .251-.975 3.245 3.245 0 0 1 .663-.835 4.921 4.921 0 0 1 .958-.677 7.817 7.817 0 0 1 2.29-.822 5.92 5.92 0 0 1 1.085-.11 4.5 4.5 0 0 1 1.578.247 2.573 2.573 0 0 1 1.063.716 2.91 2.91 0 0 1 .6 1.138 5.554 5.554 0 0 1 .189 1.512c0 .387-.016.811-.048 1.275s-.069.947-.11 1.454-.078 1.03-.11 1.569-.048 1.074-.048 1.608a3.19 3.19 0 0 0 .47 1.9 1.464 1.464 0 0 0 1.235.638 3 3 0 0 0 1.511-.5l.255.379a4.243 4.243 0 0 1-1.283.9 3.563 3.563 0 0 1-1.459.307 2.817 2.817 0 0 1-1.055-.194 2.266 2.266 0 0 1-.835-.575 2.614 2.614 0 0 1-.544-.962 4.258 4.258 0 0 1-.194-1.346c0-.152.005-.3.013-.457a4.2 4.2 0 0 1 .058-.482h-.053a13.145 13.145 0 0 1-.875 1.489 8.24 8.24 0 0 1-1.09 1.31 5.515 5.515 0 0 1-1.265.931 2.968 2.968 0 0 1-1.411.356 2.818 2.818 0 0 1-1.107-.211 2.552 2.552 0 0 1-.857-.58 2.623 2.623 0 0 1-.554-.874 3 3 0 0 1-.2-1.1 3.388 3.388 0 0 1 .286-1.406 3.765 3.765 0 0 1 .791-1.135 4.909 4.909 0 0 1 1.209-.865 8.458 8.458 0 0 1 1.529-.606 11.415 11.415 0 0 1 1.749-.361 14.75 14.75 0 0 1 1.881-.119c.041-.369.074-.726.1-1.072s.041-.733.041-1.149zm-5.4 6.038a2.792 2.792 0 0 0 .075.655 1.613 1.613 0 0 0 .237.549 1.176 1.176 0 0 0 .413.374 1.254 1.254 0 0 0 .6.135 2.028 2.028 0 0 0 .817-.183 3.748 3.748 0 0 0 .831-.51 5.363 5.363 0 0 0 .782-.778 6.646 6.646 0 0 0 1.169-2.119 5.535 5.535 0 0 0 .259-1.216q-.649.017-1.292.083a9 9 0 0 0-1.217.206 5.758 5.758 0 0 0-1.068.369 3.136 3.136 0 0 0-.848.567 2.453 2.453 0 0 0-.558.8 2.639 2.639 0 0 0-.196 1.068zm12.581-7.11a2.961 2.961 0 0 0-.053-.607.987.987 0 0 0-.162-.391.607.607 0 0 0-.277-.207 1.148 1.148 0 0 0-.4-.061 3.91 3.91 0 0 0-.751.089c-.293.058-.627.138-1 .237l-.134-.637q.624-.219 1.2-.4t1.059-.312c.323-.087.607-.155.853-.2a3.278 3.278 0 0 1 .58-.07 1.038 1.038 0 0 1 .795.3 1.5 1.5 0 0 1 .286 1.042c0 .058-.006.194-.017.408s-.028.485-.049.813-.045.705-.075 1.13-.063.877-.1 1.357-.08.978-.127 1.49-.1 1.024-.149 1.534l.052.009a24.641 24.641 0 0 1 1.433-3.828 13.257 13.257 0 0 1 1.556-2.531 5.585 5.585 0 0 1 1.573-1.4 3.1 3.1 0 0 1 1.494-.431 2.514 2.514 0 0 1 .947.189 2.142 2.142 0 0 1 .813.589 2.976 2.976 0 0 1 .567 1.041 4.934 4.934 0 0 1 .211 1.543q0 .264-.031.707a105.157 105.157 0 0 1-.174 2.145 70.972 70.972 0 0 0-.174 2.321c-.02.354-.031.664-.031.928a8.806 8.806 0 0 0 .057 1.115 2.072 2.072 0 0 0 .189.682.712.712 0 0 0 .352.343 1.392 1.392 0 0 0 .536.092 3.785 3.785 0 0 0 .949-.128 5.993 5.993 0 0 0 .993-.356l.167.457a5.4 5.4 0 0 1-.8.52 10.436 10.436 0 0 1-1.015.482 7.8 7.8 0 0 1-1.059.356 3.775 3.775 0 0 1-.932.136 1.051 1.051 0 0 1-.747-.254 1.56 1.56 0 0 1-.408-.7 4.477 4.477 0 0 1-.176-1.027q-.04-.59-.04-1.266 0-.827.057-1.7t.128-1.666l.127-1.437c.038-.431.057-.775.057-1.032a2.432 2.432 0 0 0-.386-1.517 1.247 1.247 0 0 0-1.029-.487 1.792 1.792 0 0 0-1.072.43 5.943 5.943 0 0 0-1.12 1.182 11.972 11.972 0 0 0-1.073 1.776 18.146 18.146 0 0 0-.927 2.215 20.424 20.424 0 0 0-.686 2.491 17.292 17.292 0 0 0-.342 2.6l-1.837.229-.141-.008c.047-.556.091-1.164.132-1.82s.079-1.322.114-2 .066-1.348.093-2.013.049-1.286.07-1.863.035-1.094.044-1.551.01-.815.01-1.078zm36.413 9.456q-.633.273-1.165.471t-.988.325a7.441 7.441 0 0 1-.853.188 4.969 4.969 0 0 1-.764.063 1.941 1.941 0 0 1-.879-.189 1.527 1.527 0 0 1-.629-.62 3.481 3.481 0 0 1-.373-1.134 10.341 10.341 0 0 1-.123-1.741v-2.034q0-.717.013-1.52.009-.8.022-1.639t.031-1.613l.035-1.455q.017-.677.035-1.151.045-1.029.1-2.052t.153-2.009l-.07-.026q-.15.4-.361.9t-.53 1.218q-.772 1.705-1.577 3.533t-1.627 3.731q-.822 1.9-1.656 3.859t-1.661 3.907l-.431-.018q-.184-.6-.448-1.411t-.58-1.758q-.316-.945-.672-1.995t-.726-2.127q-.369-1.077-.742-2.149t-.721-2.065q-.347-.993-.659-1.868t-.558-1.56q-.282-.8-.488-1.415t-.356-1.09l-.062.027v2.531q0 1.4-.044 2.852t-.102 2.865q-.07 1.412-.167 2.73t-.2 2.433q-.088.923-.163 1.57t-.17 1.085a2.692 2.692 0 0 1-.224.69 1.021 1.021 0 0 1-.329.382 1.108 1.108 0 0 1-.484.168 5.758 5.758 0 0 1-.681.035h-.457l-.281-.013-.123-.088a13.282 13.282 0 0 0 .734-1.9q.321-1.05.562-2.227t.418-2.44q.175-1.261.294-2.518t.193-2.478q.075-1.223.11-2.321t.049-2.03q.012-.931.013-1.626a3.647 3.647 0 0 0-.062-.738.989.989 0 0 0-.215-.462.811.811 0 0 0-.422-.237 2.97 2.97 0 0 0-.69-.066 6.348 6.348 0 0 0-.668.04c-.252.026-.53.063-.835.109l-.1-.773q1.61-.377 2.647-.557A10.2 10.2 0 0 1 79.9.352a2.274 2.274 0 0 1 .545.057 1.028 1.028 0 0 1 .4.193 1.281 1.281 0 0 1 .3.36 3.5 3.5 0 0 1 .255.559q.467 1.3.985 2.768t1.059 3l1.08 3.063q.54 1.533 1.042 2.975.194.572.356 1.042t.3.87q.135.4.255.764t.224.726h.062q.139-.378.29-.743c.1-.243.2-.5.316-.756s.233-.54.364-.839l.445-1.012 1.278-2.917q.663-1.512 1.363-3.094l1.419-3.208q.719-1.627 1.453-3.26a.809.809 0 0 1 .215-.29 1.129 1.129 0 0 1 .3-.18 1.5 1.5 0 0 1 .339-.092 2.145 2.145 0 0 1 .325-.026 2.653 2.653 0 0 1 .559.066 2.994 2.994 0 0 1 .584.189Q95.88 2 95.779 3.322t-.172 2.567q-.069 1.248-.123 2.465t-.079 2.457q-.025 1.239-.04 2.53t-.012 2.7a13.529 13.529 0 0 0 .079 1.589 3.478 3.478 0 0 0 .277 1.078 1.338 1.338 0 0 0 .531.61 1.645 1.645 0 0 0 .835.193c.123 0 .241 0 .357-.008a2.879 2.879 0 0 0 .355-.04 3.883 3.883 0 0 0 .408-.092c.151-.041.322-.094.515-.159zm.475-4.402a9.1 9.1 0 0 1 .184-1.8 9.318 9.318 0 0 1 .545-1.77 8.382 8.382 0 0 1 .892-1.609 6.53 6.53 0 0 1 1.226-1.314 5.638 5.638 0 0 1 1.547-.888 5.184 5.184 0 0 1 1.855-.325 4.071 4.071 0 0 1 1.991.475 4.555 4.555 0 0 1 1.454 1.252 5.622 5.622 0 0 1 .892 1.771 6.893 6.893 0 0 1 .3 2.031 9.085 9.085 0 0 1-.184 1.8 9.2 9.2 0 0 1-.549 1.771 8.682 8.682 0 0 1-.9 1.609 6.553 6.553 0 0 1-1.226 1.313 5.641 5.641 0 0 1-1.547.889 5.156 5.156 0 0 1-1.854.324 4.072 4.072 0 0 1-1.992-.475 4.481 4.481 0 0 1-1.449-1.251 5.707 5.707 0 0 1-.889-1.772 6.945 6.945 0 0 1-.296-2.031zm2.1-.836a8.111 8.111 0 0 0 .093 1.213 6.828 6.828 0 0 0 .285 1.187 5.942 5.942 0 0 0 .479 1.068 3.739 3.739 0 0 0 .677.866 3 3 0 0 0 .879.58 2.678 2.678 0 0 0 1.077.211 2.238 2.238 0 0 0 1.128-.278 2.79 2.79 0 0 0 .844-.734 4.206 4.206 0 0 0 .59-1.045 8.3 8.3 0 0 0 .373-1.218 9.8 9.8 0 0 0 .2-1.243c.038-.41.058-.789.058-1.135a7.933 7.933 0 0 0-.093-1.216 6.619 6.619 0 0 0-.285-1.178 6.1 6.1 0 0 0-.479-1.064 3.674 3.674 0 0 0-.677-.861 3.067 3.067 0 0 0-.879-.576 2.689 2.689 0 0 0-1.076-.21 2.268 2.268 0 0 0-1.129.272 2.771 2.771 0 0 0-.844.729 4.2 4.2 0 0 0-.59 1.046 8.263 8.263 0 0 0-.373 1.213 9.481 9.481 0 0 0-.2 1.244q-.059.619-.058 1.134zm12.419-4.218a2.892 2.892 0 0 0-.053-.607.973.973 0 0 0-.163-.391.6.6 0 0 0-.276-.207 1.142 1.142 0 0 0-.395-.061 3.91 3.91 0 0 0-.756.088c-.293.058-.627.138-1 .237l-.132-.633c.416-.146.815-.279 1.2-.4s.736-.224 1.059-.312.606-.155.852-.2a3.289 3.289 0 0 1 .58-.07 1.042 1.042 0 0 1 .8.3 1.509 1.509 0 0 1 .285 1.042c0 .058-.006.194-.017.408s-.029.485-.049.813-.045.705-.074 1.13-.064.877-.1 1.357-.08.978-.127 1.49-.1 1.024-.149 1.534l.052.009a24.641 24.641 0 0 1 1.433-3.828 13.257 13.257 0 0 1 1.556-2.531 5.6 5.6 0 0 1 1.573-1.4 3.109 3.109 0 0 1 1.494-.431 2.51 2.51 0 0 1 .949.185 2.135 2.135 0 0 1 .813.589 2.945 2.945 0 0 1 .567 1.041 4.934 4.934 0 0 1 .211 1.543c0 .176-.011.412-.03.707s-.046.625-.075.989-.064.749-.1 1.156-.072.807-.1 1.2-.055.767-.075 1.121-.031.664-.031.928a8.806 8.806 0 0 0 .057 1.115 2.072 2.072 0 0 0 .189.682.712.712 0 0 0 .352.343 1.392 1.392 0 0 0 .536.092 3.779 3.779 0 0 0 .949-.128 5.993 5.993 0 0 0 .993-.356l.167.457a5.4 5.4 0 0 1-.8.52 10.548 10.548 0 0 1-1.015.482 7.848 7.848 0 0 1-1.059.356 3.767 3.767 0 0 1-.931.136 1.047 1.047 0 0 1-.747-.254 1.563 1.563 0 0 1-.41-.7 4.592 4.592 0 0 1-.175-1.027q-.039-.59-.039-1.266 0-.827.056-1.7t.128-1.666l.128-1.437c.039-.431.057-.775.057-1.032a2.431 2.431 0 0 0-.387-1.517 1.247 1.247 0 0 0-1.028-.487 1.792 1.792 0 0 0-1.073.43 5.915 5.915 0 0 0-1.12 1.182 11.888 11.888 0 0 0-1.072 1.776 18.146 18.146 0 0 0-.928 2.215 20.244 20.244 0 0 0-.685 2.491 17.166 17.166 0 0 0-.343 2.6l-1.837.229-.141-.008c.047-.556.091-1.164.132-1.82s.079-1.322.114-2 .067-1.348.092-2.013l.071-1.863c.021-.577.035-1.094.045-1.551s.002-.814.002-1.077zm22.702 7.382c.036.017.08.043.136.075a1.021 1.021 0 0 1 .154.106.8.8 0 0 1 .123.123.2.2 0 0 1 .053.128.122.122 0 0 1-.026.07 7.2 7.2 0 0 1-1.06 1.19 6.482 6.482 0 0 1-1.178.844 5.224 5.224 0 0 1-1.243.5 5.02 5.02 0 0 1-1.248.162 4.32 4.32 0 0 1-1.933-.43 4.63 4.63 0 0 1-1.512-1.177 5.554 5.554 0 0 1-.989-1.754 6.436 6.436 0 0 1-.356-2.158 8.925 8.925 0 0 1 .8-3.674 8.221 8.221 0 0 1 .953-1.586A6.685 6.685 0 0 1 130.61 9a5.914 5.914 0 0 1 1.573-.848 5.414 5.414 0 0 1 1.841-.307 4.321 4.321 0 0 1 1.24.175 3.313 3.313 0 0 1 1.032.506 2.49 2.49 0 0 1 .708.813 2.252 2.252 0 0 1 .264 1.1 2.3 2.3 0 0 1-.585 1.565 4.652 4.652 0 0 1-1.613 1.134 11.416 11.416 0 0 1-2.421.751 26.333 26.333 0 0 1-3.01.427v.148a6.944 6.944 0 0 0 .286 2.057 5.086 5.086 0 0 0 .786 1.6 3.685 3.685 0 0 0 1.178 1.033 3 3 0 0 0 1.459.369 3.8 3.8 0 0 0 1.622-.392 5.925 5.925 0 0 0 1.682-1.272zM135 10.8a2.088 2.088 0 0 0-.136-.756 1.915 1.915 0 0 0-.379-.611 1.752 1.752 0 0 0-1.3-.558 2.579 2.579 0 0 0-1.037.2 2.907 2.907 0 0 0-.835.549 3.852 3.852 0 0 0-.65.809 5.854 5.854 0 0 0-.479.98 7.8 7.8 0 0 0-.321 1.063 9.139 9.139 0 0 0-.176 1.064 15.82 15.82 0 0 0 2.238-.3 7.27 7.27 0 0 0 1.67-.554 2.929 2.929 0 0 0 1.041-.809A1.721 1.721 0 0 0 135 10.8zm8.367-9.218q-.369 1.67-.62 3.45t-.426 3.511c.276.012.543.02.805.026l.728.018c.226.006.432.009.616.009h.462a7.285 7.285 0 0 0 1.309-.1c.03.1.053.19.071.272a1.148 1.148 0 0 1 .026.229.476.476 0 0 1-.321.5 2.907 2.907 0 0 1-.927.114q-.581 0-1.3-.07c-.479-.047-1-.091-1.569-.132q-.1.94-.163 1.833t-.106 1.683c-.025.528-.045 1.016-.057 1.467s-.017.844-.017 1.178a12.942 12.942 0 0 0 .1 1.679 4.127 4.127 0 0 0 .342 1.252 1.842 1.842 0 0 0 .677.787 2 2 0 0 0 1.09.272 3.9 3.9 0 0 0 1.059-.166 8.141 8.141 0 0 0 1.332-.537.926.926 0 0 1 .272.58q-.544.36-1.1.655a10.713 10.713 0 0 1-1.089.5 7.2 7.2 0 0 1-1.038.326 4.281 4.281 0 0 1-.949.114 2.652 2.652 0 0 1-1.077-.215 1.988 1.988 0 0 1-.844-.765 4.416 4.416 0 0 1-.552-1.481 11.558 11.558 0 0 1-.2-2.356q0-.8.027-1.647t.07-1.718q.043-.871.114-1.741t.158-1.714q-.693.009-1.288.057a6.519 6.519 0 0 0-1.014.154.265.265 0 0 1-.027-.123.468.468 0 0 1 .18-.347 1.7 1.7 0 0 1 .5-.294 4.052 4.052 0 0 1 .769-.22 7.589 7.589 0 0 1 .984-.123q.2-1.837.431-3.472t.457-2.918a.87.87 0 0 1 .162-.378.958.958 0 0 1 .277-.237 1.124 1.124 0 0 1 .343-.123 1.875 1.875 0 0 1 .36-.035 2.066 2.066 0 0 1 .524.061 1.855 1.855 0 0 1 .439.185z" fill="#fff"/></svg>